<?xml version="1.0" standalone="no"?>
<!DOCTYPE svg PUBLIC "-//W3C//DTD SVG 20010904//EN"
 "http://www.w3.org/TR/2001/REC-SVG-20010904/DTD/svg10.dtd">
<svg version="1.0" xmlns="http://www.w3.org/2000/svg"
 width="220.000000pt" height="123.000000pt" viewBox="0 0 220.000000 123.000000"
 preserveAspectRatio="xMidYMid meet">

<g transform="translate(0.000000,123.000000) scale(0.100000,-0.100000)"
fill="#000000" stroke="none">
<path d="M391 1213 c-91 -33 -152 -124 -150 -224 l1 -44 19 60 c36 116 121
185 229 185 100 0 173 -63 186 -161 6 -46 9 -50 46 -61 57 -17 98 -68 98 -121
0 -24 -8 -56 -20 -74 -15 -25 -16 -31 -4 -26 41 15 60 136 28 181 -18 26 -64
52 -92 52 -15 0 -21 10 -25 45 -7 51 -29 99 -61 133 -55 61 -172 86 -255 55z"/>
<path d="M440 1088 c-59 -30 -94 -92 -94 -165 0 -126 118 -174 205 -83 78 82
69 220 -16 256 -44 18 -43 18 -95 -8z"/>
<path d="M40 978 c-20 -33 -30 -79 -33 -158 -2 -39 1 -45 19 -48 20 -3 21 3
27 76 6 89 18 122 47 122 31 0 56 -51 111 -225 51 -161 84 -247 75 -195 -12
73 -67 293 -87 345 -42 112 -117 151 -159 83z"/>
<path d="M2059 943 c-45 -4 -45 -5 -77 -68 l-32 -65 29 0 c22 0 39 13 79 61
29 34 52 65 52 70 0 5 -1 8 -2 7 -2 -1 -24 -3 -49 -5z"/>
<path d="M1200 905 c-11 -13 -10 -20 1 -41 11 -21 11 -27 0 -34 -24 -14 -3
-30 24 -18 28 13 31 28 13 59 -11 17 -10 23 0 26 15 6 6 23 -12 23 -8 0 -19
-7 -26 -15z"/>
<path d="M1437 902 c-20 -22 -22 -65 -4 -80 6 -6 33 -10 58 -10 l47 0 -1 49
c-1 43 -4 49 -21 49 -12 0 -30 3 -41 6 -13 3 -27 -2 -38 -14z m61 -40 c3 -17
-2 -22 -18 -22 -25 0 -38 29 -19 41 20 13 34 6 37 -19z"/>
<path d="M1728 912 c-14 -3 -18 -14 -18 -53 0 -42 3 -49 19 -49 16 0 20 8 23
38 2 25 8 37 18 37 10 0 16 -12 18 -37 2 -25 8 -38 18 -38 10 0 14 13 14 49 0
53 -16 69 -50 51 -10 -5 -20 -6 -22 -2 -2 4 -11 6 -20 4z"/>
<path d="M910 874 c0 -17 6 -28 20 -31 19 -5 20 -14 20 -178 0 -154 -2 -174
-18 -188 -10 -10 -26 -17 -35 -17 -23 0 -24 -65 -1 -74 31 -12 100 -6 134 13
65 34 74 63 78 263 4 142 7 178 18 178 9 0 14 11 14 30 l0 30 -115 0 -115 0 0
-26z"/>
<path d="M593 865 c-53 -37 -51 -142 4 -184 35 -29 59 -26 95 9 28 29 30 35
26 87 -4 46 -10 61 -32 80 -31 27 -62 29 -93 8z"/>
<path d="M346 748 c13 -44 37 -82 81 -129 l44 -47 -35 -27 c-19 -15 -52 -35
-73 -46 -26 -13 -31 -19 -17 -19 11 0 42 14 68 31 l49 30 -32 -40 c-47 -59
-110 -110 -152 -122 -30 -9 -43 -8 -73 6 -44 21 -65 49 -77 105 -11 50 4 156
32 220 27 64 -5 23 -39 -49 -29 -62 -34 -164 -13 -239 15 -55 71 -118 112
-126 70 -14 154 58 221 190 l42 82 28 -14 c38 -19 82 -18 102 5 16 17 14 18
-38 24 -29 3 -68 13 -85 22 -43 22 -111 92 -128 133 -15 36 -28 44 -17 10z"/>
<path d="M1290 761 c-86 -28 -135 -83 -146 -163 -16 -119 75 -217 204 -218
124 0 204 74 206 190 1 73 -27 126 -86 163 -48 30 -132 43 -178 28z m82 -80
c65 -76 61 -251 -5 -251 -18 0 -64 59 -75 98 -15 49 -16 137 -2 163 16 28 54
24 82 -10z"/>
<path d="M1644 756 c-46 -20 -74 -62 -74 -110 0 -49 29 -82 118 -136 33 -20
52 -38 52 -51 0 -32 -43 -23 -98 21 l-51 41 -25 -38 c-14 -21 -26 -43 -26 -49
0 -18 70 -47 127 -52 68 -6 138 26 160 74 l16 33 29 -40 c46 -64 120 -84 209
-58 43 13 109 64 109 84 0 23 -18 27 -49 10 -17 -8 -45 -15 -64 -15 -36 0 -87
32 -87 54 0 8 45 31 100 52 55 22 100 44 100 49 0 23 -48 91 -79 112 -103 69
-240 11 -270 -115 l-12 -49 -85 50 c-56 34 -84 57 -84 69 0 30 44 22 84 -15
l35 -34 27 40 c25 39 26 41 8 54 -44 32 -120 40 -170 19z m378 -63 c9 -10 21
-28 27 -41 11 -21 9 -24 -34 -42 -26 -11 -48 -20 -50 -20 -2 0 -7 15 -10 33
-13 68 30 112 67 70z"/>
<path d="M380 732 c0 -11 92 -62 111 -62 8 1 -1 7 -19 15 -18 8 -47 24 -63 35
-16 12 -29 17 -29 12z"/>
<path d="M518 663 c7 -3 16 -2 19 1 4 3 -2 6 -13 5 -11 0 -14 -3 -6 -6z"/>
<path d="M725 615 c7 -59 -12 -160 -40 -214 -67 -132 -237 -193 -413 -147 -29
7 -52 12 -52 10 0 -2 24 -16 53 -31 46 -24 63 -28 142 -28 78 0 97 4 147 28
144 70 221 242 172 382 l-14 40 5 -40z"/>
<path d="M298 473 c7 -3 16 -2 19 1 4 3 -2 6 -13 5 -11 0 -14 -3 -6 -6z"/>
<path d="M1251 298 c-10 -28 -2 -108 10 -108 5 0 9 15 9 34 0 19 6 37 13 40
10 5 10 7 0 12 -7 3 -13 12 -13 19 0 7 6 16 13 18 7 3 5 6 -6 6 -10 1 -21 -9
-26 -21z"/>
<path d="M2181 273 c1 -39 2 -43 9 -23 12 36 12 70 0 70 -5 0 -10 -21 -9 -47z"/>
<path d="M1165 300 c3 -5 8 -10 11 -10 2 0 4 5 4 10 0 6 -5 10 -11 10 -5 0 -7
-4 -4 -10z"/>
<path d="M1937 292 c-2 -11 -1 -36 2 -58 5 -28 12 -40 26 -42 16 -3 18 -1 8 9
-7 7 -13 23 -13 35 0 12 6 25 13 28 10 5 10 7 0 12 -7 3 -13 12 -13 20 0 20
-17 17 -23 -4z"/>
<path d="M881 243 c0 -23 4 -45 10 -48 15 -10 24 2 11 17 -5 7 -12 27 -15 43
-3 24 -4 22 -6 -12z"/>
<path d="M940 251 c0 -17 -5 -33 -11 -37 -8 -4 -7 -9 2 -15 25 -15 29 -10 29
36 0 25 -4 45 -10 45 -5 0 -10 -13 -10 -29z"/>
<path d="M1025 271 c-10 -9 -5 -81 5 -81 6 0 10 15 10 34 0 22 6 36 16 40 24
9 24 9 24 -34 0 -22 5 -40 11 -40 6 0 9 17 7 43 -3 40 -4 42 -36 42 -18 1 -35
-1 -37 -4z"/>
<path d="M1168 273 c-2 -5 -1 -26 3 -48 l6 -40 2 48 c1 44 -3 57 -11 40z"/>
<path d="M1350 265 c-7 -8 -10 -25 -6 -39 12 -48 76 -41 76 8 0 42 -45 62 -70
31z m50 -10 c16 -19 6 -45 -19 -45 -23 0 -35 28 -20 46 15 18 24 18 39 -1z"/>
<path d="M1482 239 c0 -22 4 -42 9 -45 5 -3 9 11 9 30 0 25 4 36 15 36 25 0
17 15 -9 16 -22 2 -25 -2 -24 -37z"/>
<path d="M1608 273 c-14 -3 -18 -15 -18 -44 0 -22 4 -38 9 -35 4 3 6 16 4 29
-5 25 19 53 37 42 5 -3 10 -22 10 -41 0 -20 4 -33 10 -29 5 3 7 12 4 20 -7 18
14 57 29 52 7 -2 15 -21 18 -43 l6 -39 2 46 1 47 -47 -1 c-27 0 -56 -2 -65 -4z"/>
<path d="M1803 273 c-7 -3 -13 -17 -13 -33 0 -34 16 -49 52 -47 26 2 28 5 28
42 0 37 -2 40 -28 41 -15 1 -33 0 -39 -3z m47 -18 c17 -20 5 -45 -20 -45 -11
0 -23 7 -26 15 -6 15 11 45 26 45 4 0 13 -7 20 -15z"/>
<path d="M2052 268 c-27 -27 -7 -78 29 -78 10 0 21 5 25 11 4 7 0 9 -13 5 -12
-4 -25 -1 -33 9 -11 13 -8 15 17 15 37 0 45 8 32 31 -11 22 -39 25 -57 7z m46
-15 c2 -8 -6 -13 -22 -13 -19 0 -24 4 -19 15 6 18 34 16 41 -2z"/>
<path d="M2180 199 c0 -5 5 -7 10 -4 6 3 10 8 10 11 0 2 -4 4 -10 4 -5 0 -10
-5 -10 -11z"/>
<path d="M1525 132 c-3 -3 -98 -9 -200 -12 -43 -1 -46 -3 -26 -11 19 -8 184
-19 344 -23 15 -1 27 -5 27 -11 0 -5 4 -4 8 3 7 10 15 10 38 2 40 -16 165 -47
186 -47 9 0 15 4 12 8 -2 4 2 9 8 12 19 7 -47 33 -142 55 -73 18 -245 34 -255
24z"/>
</g>
</svg>
